<svg version="1" xmlns="http://www.w3.org/2000/svg" width="666.667" height="666.667" viewBox="0 0 500.000000 500.000000"><path d="M79 208.5V345l37.3-.2 37.2-.3.3-40.3.2-40.2 27.8-.2c35.3-.1 36.2-.1 36.2-1.1 0-.4.9-.2 2 .5 1.7 1.1 2.2 1 3-.1.4-.8 1.4-1.6 2.2-1.7.7-.1 2.1-.5 3.1-.9s1.7-.3 1.7.5c0 .6-.4.9-.9.6-.5-.3-1.5.2-2.2 1.2-1.2 1.5-1.2 1.6.2.5.9-.7 1.9-1 2.3-.6.4.4 2.4.8 4.4.9 2 .1 2.9-.1 2-.3-1-.3-1.8-.9-1.8-1.4 0-.6.4-.8.9-.5.5.3 1.5-.2 2.2-1.2 1.3-1.5 1.2-1.6-.4-.3-.9.7-1.7 1-1.7.6 0-.5-.9 0-2 1s-2.3 1.5-2.7 1.2c-.3-.4-.1-.7.5-.7.7 0 1.1-.3 1-.8-.2-.4 0-.8.4-1 .4-.2 2.3-.9 4.3-1.8 1.9-.8 3.5-1.2 3.5-.9 0 .3 1.1-.2 2.5-1.1 1.4-.9 2.5-1.3 2.5-.9 0 .3 1.2-.3 2.6-1.4 1.5-1.2 3.2-2.1 3.9-2.1.7 0 1.8-.7 2.5-1.5s1.6-1.2 2.1-.9c.5.3 1.2-.1 1.5-1 .3-.8 1.4-1.3 2.5-1.1 1 .2 2.2-.1 2.5-.7.5-.7.2-.8-.7-.3-.8.5-.3-.3 1-1.8 1.3-1.4 2.8-2.4 3.5-2.1.6.2 1.9-1 2.8-2.7 1.1-1.8 2.2-2.7 2.9-2.3.7.4.9.3.6-.3-.4-.6 1.8-4.1 4.8-7.9 12.7-15.9 19-33.5 20.1-55.9 1.7-33.9-11.9-64.8-36.1-82-8.1-5.8-20.2-11.8-29.1-14.4-16-4.7-22.8-5.1-90.1-5.1H79v136.5zm112.2-75.4c8.1 1.7 13.8 4.8 19.3 10.4 3.4 3.4 5.4 6.4 6.1 9.2.6 2.3.7 4 .3 3.7-.5-.3-.9 0-.9.5 0 .6.4 1.1.9 1.1 1.7 0 2.3 4 .9 5.7-.7.9-.8 1.4-.2 1 .7-.4 1.4.3 1.6 1.8.6 2.9.1 3.2-1.9.7-1.3-1.5-1.3-1.5-.4.4.6 1.2.7 2.5.3 2.9-.4.5-.2.5.5.2.7-.5 1.1.4 1 2.8-.1 1.9-.6 3.6-1.3 3.9-.6.2-1 1.7-.8 3.2.3 3.5-1.5 7.2-6.2 12.1-2.1 2.1-3.5 3.3-3.1 2.8.3-.6.1-1.7-.4-2.5-.9-1.3-1-1.3-.8 0 .4 3.6-.2 4.4-1.5 2.1-.9-1.6-1.6-2-2-1.2-.4.6-1.1.9-1.5.7-.4-.3-.8.1-.8.9s.7 1.7 1.5 2c1 .3 1.2 0 .8-1-.3-.8-.1-1.5.4-1.5 1.5 0 1.2 2.6-.5 4-.8.7-1.5 1-1.5.6s-1.2.2-2.7 1.1c-1.5 1-2.4 1.2-2 .5 1.2-1.8-.1-1.5-2.5.8-1.2 1.1-2.4 1.7-2.7 1.4-.3-.3.2-1.2 1.2-1.9 1.6-1.1 1.2-1.3-3-1-2.6.2-5 .4-5.3.5-.3.1-.8.2-1.1.2-.3-.1-.6.5-.6 1.2 0 1 .8 1.2 3.1.5 4-1.2 4.6-1.1 4.6.2 0 .6-.7.9-1.5.5-.8-.3-1.5-.2-1.5.3 0 1.2-1.2 1.3-17.7 1.8l-15.3.4V132h16c8.7 0 18.3.5 21.2 1.1z"/><path d="M168 152c0 .5.5 1 1 1 .6 0 1-.5 1-1 0-.6-.4-1-1-1-.5 0-1 .4-1 1zM211 151.5c0 .7 3 1.3 3.4.7.3-.4-.4-.9-1.5-.9-1-.1-1.9 0-1.9.2zM170.8 159.7c-.3 1.3-.2 2.5.3 2.8.4.3.6 1.2.2 2-.3.9.1 1.5 1.1 1.5 1.9 0 2.1-1.1.4-2.8-.9-.9-.8-1.2.4-1.2.9 0 1.9.8 2.1 1.7.4 1.6.5 1.6.6 0 0-1.1-.7-2.1-1.8-2.4-1.1-.3-2.1-1.2-2.3-2.2-.3-1.2-.5-1-1 .6zM173.3 167.6c.9.3 1.7 1 1.7 1.5 0 .6-.4.8-.9.5-1.5-1-2.1 2.2-.6 3.4 1.5 1.3 2 .5 2-3 0-1.7-.6-2.5-2-2.7-1.5-.1-1.6-.1-.2.3zM178.5 185c-.3.6.1.7.9.4 1.8-.7 2.1-1.4.7-1.4-.6 0-1.3.4-1.6 1zM182.5 185c-.3.5-.3 1 .1 1s-.4 1-1.7 2.2c-1.6 1.4-1.8 1.9-.7 1.5 1.8-.7 3.4.8 1.9 1.7-.4.3-.8 1.8-.8 3.2 0 4.9 2-.5 2.2-5.8.2-5 0-5.5-1-3.8zM209 184.6c0 .1 1.2 1 2.8 2 1.9 1.3 2.4 1.3 1.5.2-.7-.8-1.1-1.7-.8-1.9.2-.3-.5-.5-1.5-.5-1.1 0-2 .1-2 .2zM209.1 187.9c-.7.5-1 1.4-.7 2 1.1 1.8 2.5 1.3 2.3-.9-.1-1.1-.1-2-.2-2 0 0-.6.4-1.4.9zM363 151.4c0 .2.7.6 1.5 1 .8.3 1.5.1 1.5-.4 0-.6-.7-1-1.5-1s-1.5.2-1.5.4zM366.6 152.5c-.9 2.6-.7 3.2.5 1.2.6-1 .9-2.1.6-2.3-.2-.3-.7.2-1.1 1.1zM441 151.5c0 .7 3 1.3 3.4.7.3-.4-.4-.9-1.5-.9-1-.1-1.9 0-1.9.2zM363.7 153.6c-.4.4-.2 1.3.3 1.9 1.1 1.3-1.5 4.3-2.7 3.1-.3-.3-.1-.6.5-.6.7 0 1.2-.5 1.2-1.1 0-.8-.5-.8-1.5.1-.8.7-1.2 1.6-1 2 .9 1.5 4.5.7 4.6-1 0-1 .2-1.1.6-.3.2.7.9 1.3 1.5 1.3s.4-.8-.4-1.8c-.9-.9-1.7-2.3-1.9-3-.3-.7-.8-1-1.2-.6zM434.6 154.5c.4.8 1.2 1.5 2 1.5 2 0 1.7-.7-.6-2-1.6-.9-1.8-.8-1.4.5zM440.1 155.7c-.1 1.7 1.6 2.5 2.5 1.2.4-.7.3-.9-.4-.5-.5.3-1.3 0-1.5-.6-.4-.9-.6-1-.6-.1zM436 165.1c0 .5.5.7 1 .4.6-.3 1-.8 1-1.1 0-.2-.4-.4-1-.4-.5 0-1 .5-1 1.1zM358.6 166.7c-.6 1.4-.5 1.5.5.6.7-.7 1-1.5.7-1.8-.3-.3-.9.2-1.2 1.2zM364.5 169c.3.5.8 1 1.1 1 .2 0 .4-.5.4-1 0-.6-.5-1-1.1-1-.5 0-.7.4-.4 1zM432.4 170.7c0 1.5.5 2.2 1.3 1.9.7-.3 1.3-.1 1.3.4 0 .6-.7 1-1.5 1s-1.5.4-1.5 1c0 .5.7.6 1.7.3 1.1-.4 1.4-.3.9.5-.4.7-.3 1.2.3 1.2.5 0 1.3-.5 1.6-1 .3-.6 0-1-.7-1-.9 0-.9-.3.2-1 .8-.5 1.1-1 .6-1-.4 0-.1-1.1.8-2.5 1.4-2.1 1.4-2.4.1-1.9-.8.4-1.5 1.2-1.5 2s-.6 1.1-1.7.7c-1.1-.4-1.2-.8-.5-1.1 1.6-.5 1.5-1.9-.1-1.9-.7 0-1.3 1.1-1.3 2.4zM357.5 172c-.3.6.1.7.9.4 1.8-.7 2.1-1.4.7-1.4-.6 0-1.3.4-1.6 1zM357.8 174.8c-1.2 1.5-1.1 1.6.5.3 1.1-.9 1.7-1 1.7-.2 0 .6-.6 1.4-1.4 1.7-.8.3-1.2 1.3-1 2.2.4 1.3.2 1.3-1-.3-1.6-1.8-1.6-1.8-1.3 1.5.3 1.9.7 3.4 1.1 3.2.3-.1 1.2-.2 1.9-.2.8 0 .7-.3-.3-1-1.2-.8-1.2-1 .2-1.5.9-.4 1.4-1.3 1.1-2.1-.3-.8.1-1.4 1.1-1.4 2 0 2.1-2.6.2-3.3-.8-.3-2 .2-2.8 1.1zM433 182c-.9.6-1 1-.3 1 .6 0 1.5-.5 1.8-1 .8-1.2.4-1.2-1.5 0zM429 193c-.9.6-1 1-.3 1 .6 0 1.5-.5 1.8-1 .8-1.2.4-1.2-1.5 0zM351.1 194.6c0 1.1.3 1.4.6.6.3-.7.2-1.6-.1-1.9-.3-.4-.6.2-.5 1.3zM418.5 195c.3.5.8 1 1.1 1 .2 0 .4-.5.4-1 0-.6-.5-1-1.1-1-.5 0-.7.4-.4 1zM423.4 195.2c-.3.4.2 1.1 1 1.4.9.3 1.3 1 1 1.5-.3.5-.9.7-1.4.4-1.5-.9.2 3.4 1.9 4.7 1.3 1 1.4 1 .4-.2-1.6-1.7-1.7-4-.2-4 .5 0 .8.4.4.9-.3.5 0 1.3.6 1.7.8.4.9.3.5-.4s-.1-1.2.6-1.2c.9 0 .9-.3-.2-1-.8-.5-1-1-.4-1s1.1-.7 1.1-1.5c0-1.2-.3-1.2-1.6-.2-1.2 1-1.4.9-.9-.4.6-1.6-1.8-2.3-2.8-.7zM350.5 197.7c.3.3 0 1.3-.7 2-.9 1.1-.9 1.7.3 2.4.9.6 1 .9.2.9-.7 0-1.7.9-2.3 2-.9 1.6-.8 1.8.5 1.4.8-.3 1.2-1.1.8-1.7-.4-.6 0-.8.9-.5 1.1.5 1.4-.2 1.3-2.7 0-1.9-.4-3.6-.8-3.9-.4-.3-.5-.3-.2.1zM424.6 205.8c-.3.5.1.9.9.9s1.2-.4.9-.9c-.3-.4-.7-.8-.9-.8-.2 0-.6.4-.9.8zM349.7 207.8c-1.4 1.6-1.5 2.1-.2 4.5 1.5 2.9.8 3.5-1.4 1.4-1.1-1-1.3-1-.7 0 .4.7.3 1.3-.3 1.3-.5 0-1.2-.7-1.4-1.5-.4-1.1-.5-1-.3.2.1 1.1 1.1 1.8 2.8 2 2.9.2 4.6-1.1 2.8-2.2-.6-.4-.8-1-.5-1.5.3-.5 0-1.2-.5-1.5-.8-.5-.6-1.3.6-2.6.9-1 1.5-1.9 1.2-1.9-.3 0-1.2.8-2.1 1.8zM424.5 210.1c-.4.6-.5 1.2-.2 1.5.2.3.7-.2 1-1.1.7-1.7.1-2-.8-.4zM421 219.1c0 .5.5.7 1 .4.6-.3 1-.8 1-1.1 0-.2-.4-.4-1-.4-.5 0-1 .5-1 1.1zM417 219.6c0 .3.7 1.2 1.5 2 1.6 1.7 1.8 1.4.9-1-.6-1.5-2.4-2.3-2.4-1zM416.3 223.5c0 .8.4 1.2.9.9.4-.3.8-.9.8-1.5 0-.5-.4-.9-.8-.9-.5 0-.9.7-.9 1.5zM416.1 226.7c-.1 1.8 1.9 2.7 3.2 1.3.9-1 .8-1.2-.5-.7-.9.3-1.9.1-2.2-.6-.3-.9-.5-.9-.5 0zM341.9 229c-.1.5-.2 1.5-.3 2.1 0 .6-1 1.7-2 2.5-1.1.8-1.5 1.4-.9 1.4 1.3 0 4.6-3.7 4.9-5.5.1-.8-.2-1.5-.7-1.5-.5 0-1 .4-1 1zM340.3 236.2c-1.2 2.1-1.2 3.5.3 3.5.7 0 1-.5.7-1-.4-.7.1-.8 1.3-.4 1.8.7 1.8.6.1-.7-1.4-1-1.5-1.5-.5-1.9.9-.4.9-.6.1-.6-.6-.1-1.5.5-2 1.1zM270.8 240.1c-2 1.1-2.5 4.3-.5 3.6.6-.2 2.1 0 3.2.6 1.7.9 1.8.8.8-.5-.7-.8-.9-1.8-.5-2.3.4-.4-.3-.2-1.5.4-2.7 1.4-3 .4-.5-1.5 2-1.6 1.4-1.8-1-.3zM408.6 240.7c-.9.9.8 5.5 2.4 6.3 2.7 1.5 3.2-.1.8-2.7-2.1-2.2-1.3-3.4.9-1.2.7.7 1.2.6 1.6-.5.3-.8.1-1.8-.5-2.2-.7-.4-.8-.3-.4.4s.2 1.2-.3 1.2c-.6 0-1.1-.4-1.1-.8 0-.8-2.6-1.2-3.4-.5zm3.4 4.8c1.1 1.3 1 1.4-.4.9-.9-.3-1.6-1-1.6-1.5 0-1.3.6-1.1 2 .6zM264.6 243.9c-.9 1.5 4 4 6.8 3.5 2.4-.4 3.1.4 2.7 2.9-.1.5.4.5 1 .1.7-.4 1-.2.7.7-.3.8-1.2 1.3-2 1.3-.8-.1-1.5.5-1.5 1.2 0 1.6 1.5 1.4 3.7-.6 1.5-1.4 1.4-1.8-.9-4.9-1.4-1.8-2.7-2.8-2.9-2.2-.2.7-1 .7-2.4-.3-1.1-.8-2.7-1.2-3.6-.9-1 .4-1.3.2-.8-.5.4-.7.5-1.2.2-1.2s-.7.4-1 .9zm4.9 2.9c-.3.3-1.1 0-1.8-.7-.9-1-.8-1.1.6-.5 1 .3 1.5.9 1.2 1.2zM405 244c0 .5.7 1 1.5 1s1.5-.5 1.5-1c0-.6-.7-1-1.5-1s-1.5.4-1.5 1zM408.3 248c.2.8 1 1.4 1.6 1.2 1.4-.3 1.5 1.5.1 2.1-.6.3-.5.4.2.3 1.4-.3 1.8-2.6.4-2.5-.5 0-1.3-.5-1.8-1.3-.8-1-.9-1-.5.2zM258.6 250.6c-1.1.7-1.6 1.7-1.3 2.1.4.4 1.5-.1 2.4-1 2.2-2.1 1.4-3-1.1-1.1zM253.9 251.7c-1.3 1.6-1.2 1.7.4.4.9-.7 1.7-1.5 1.7-1.7 0-.8-.8-.3-2.1 1.3zM248.8 254.1c-1 .5-1.8 1.5-1.8 2.2 0 .8.3.7.9-.2.5-.8 1.4-1 2.1-.6.8.5 1.1.4.6-.3-.3-.5 0-1.3.6-1.5.7-.3.9-.6.3-.6-.5 0-1.8.4-2.7 1zM408.2 255.7c-.1 1.2.3 2.3.9 2.3.5 0 .7-.5.4-1-.4-.6-.2-1.7.4-2.4.8-.9.7-1.3-.2-1.3-.7 0-1.4 1.1-1.5 2.4zM253.5 255c-.4.6.3 1 1.4 1 2.5 0 2.7-.6.6-1.3-.8-.4-1.7-.2-2 .3zM333.6 255.5c.4.9.1 2-.5 2.5-.7.4-1.3 1.3-1.4 2.1-.2.8-.6 1.9-.9 2.5-.4.6-.1 1.1.7 1.1.8 0 1.3-.5 1.2-1-.1-.5.4-1.2 1.2-1.5.9-.3 1.1 0 .6.9-.5.8-.4 1 0 .6 1.2-1 1.5-3.8.4-3.1-.5.3-.9 0-.9-.5 0-.6.4-1.1.9-1.1 1.3 0 .7-3.3-.7-3.8-.8-.2-1 .3-.6 1.3zM242.6 258.6c-1.1.7-1.6 1.7-1.3 2.1.4.4 1.5-.1 2.4-1 2.2-2.1 1.4-3-1.1-1.1zM238.7 263.1c.7.7 1.5 1 1.8.7.3-.3-.2-.9-1.2-1.2-1.4-.6-1.5-.5-.6.5zM334 265c0 .5.5 1 1.1 1 .5 0 .7-.5.4-1-.3-.6-.8-1-1.1-1-.2 0-.4.4-.4 1zM205.6 266.5c-1.1.8-1.5 1.5-.9 1.5s1.6-.7 2.3-1.5c1.6-1.9 1.1-1.9-1.4 0zM329.9 265.2c-.7 2.3-.4 4 .8 5.5 1.4 1.7 1.4 1.7.9-.1-.4-1-.1-2.5.5-3.2 1-1.2.8-1.3-.6-.8-1.3.5-1.6.4-1.1-.4.4-.7.5-1.2.2-1.2s-.6.1-.7.2zM403.7 266.6c.5 1.3.3 1.4-1.3.6-1.7-.9-1.9-.6-2 3.9-.1 5 1 5.5 2.7 1.2.5-1.4 1.4-2.1 2.1-1.7.6.4.8.3.4-.4-.3-.6-1.5-.9-2.6-.7-1.2.2-1.8 0-1.5-.5.3-.4 1.6-.7 3-.5 2.4.2 2.5.1.9-1.6-2.1-2.3-2.5-2.4-1.7-.3zm-2 6.6c-.3.8-.6.5-.6-.6-.1-1.1.2-1.7.5-1.3.3.3.4 1.2.1 1.9z"/><path d="M332.7 268.7c-1.1 1.7 1.3 2.8 2.6 1.3.9-1 .9-1.1 0-.6-.6.3-1.3.1-1.5-.6-.3-.9-.6-.9-1.1-.1zM280.2 270c.3.8.9 2.6 1.3 3.8.6 2.2.5 2.3-1.7 1.2-2.1-1-2.1-1-.5.3 1.8 1.5 1.9 3.7.2 4.9-.6.5-.5 1.2.4 2 .9.9 1.2.9.7.1-.4-.7.2-1.7 1.3-2.2 3-1.6 3.4-1.3 1.7 1.1-.9 1.2-1.6 2.7-1.6 3.3.1 1.2 3.4-4.6 3.5-6 0-.6-.8-1.8-1.8-2.8-1-1-1.7-2.4-1.4-3 .2-.7-.3-1.9-1.1-2.7-1.4-1.3-1.5-1.3-1 0zm3.3 8.1c-.4.5-1.2.9-1.8.8-.9 0-.8-.2.1-.6.6-.2.9-1 .6-1.5-.4-.7-.2-.8.5-.4.6.4.9 1.2.6 1.7zM402.2 276.2c-1.5 1.5-1.6 3.8-.1 3.8.5 0 .7-.5.4-1-.4-.6-.1-1.7.5-2.5 1.5-1.8.9-2-.8-.3zM325.6 280.9c-1.2 1.3-1.4 2.1-.6 2.6.8.5.5 1.1-.7 2.1-1.7 1.3-1.7 1.4.1.7 1.3-.4 1.7-.3 1.2.5-.3.6-.1 1.4.5 1.8.8.4.7.9-.2 1.5-1.1.7-1.1.9-.1.9.7 0 1 .5.7 1-.5.8-1.1.7-2.1-.1-.8-.6-1.7-.9-2.1-.5-.3.3 0 .6.7.6.9 0 .7.7-.6 2.2l-1.9 2.3 2.2-1.8c1.2-1.1 2.4-1.4 2.7-.9.3.6 0 1.3-.6 1.5-.9.4-1 .6-.1.6 2 .2 2.7-2.2 2.9-9.7 0-3.9 0-7.2-.1-7.2s-1 .9-1.9 1.9zm1.4 1.7c0 .8-.5 1.2-1 .9-.6-.4-.8-1.1-.5-1.6.9-1.4 1.5-1.1 1.5.7zM209.3 281.5c0 .7.6 1.1 1.4.8.7-.3 1.3-.6 1.3-.8 0-.2-.6-.5-1.3-.8-.8-.3-1.4.1-1.4.8zM213.8 283.9c.5 1.3.3 1.4-.9.4-1.3-1-1.6-1-1.6.2 0 .8.4 1.2.9.9.4-.3.8-.1.8.5 0 .5-.6 1.2-1.2 1.5-.7.3-.3.3 1 0 1.4-.3 2.2-.1 2.2.7 0 .7.3.9.6.6.4-.4.1-1.3-.6-2.2-.7-.8-.8-1.5-.3-1.5s1-.6 1-1.3c0-.8-.6-1.4-1.3-1.4-.7 0-1 .7-.6 1.6zM284.1 284.9c-1.3 2.4.4 4 2.2 2.2.9-.9.7-1-.8-.5-1.8.7-1.9.6-.6-.9.8-1 1.1-2 .8-2.3-.3-.3-1 .3-1.6 1.5zM280 284.5c0 .5.5 1.7 1 2.5s1 1 1 .5c0-.6-.5-1.7-1-2.5s-1-1.1-1-.5zM393.5 289.2c2.8 1.5 2.8 1.5 2 2.8-.5.8-1.2.5-2.2-.7-.8-1-1.2-1.2-.8-.6.4.8-.1 1.3-1.2 1.3-1.7.1-1.7.1 0 1.1.9.6 1.4 1.5 1.1 2.1-.4.6-.2.8.4.4.6-.3 1.3-.2 1.7.4.3.5 0 1-.8 1-.7 0-1.4.7-1.4 1.5s.6 1.5 1.4 1.5c.7 0 1.2-.3 1.2-.8-.1-.4 0-1 .1-1.5.1-.4.4-1.2.5-1.7.1-.6.4-1.2.5-1.5.1-.3.3-1.1.4-1.8.1-.6.6-1.1 1.2-1 .5.1 1.1-.7 1.1-1.8.1-1-.2-1.9-.8-1.9-.5 0-.9.5-.9 1 0 .7-.6.7-1.9 0-2.7-1.4-4.1-1.2-1.6.2zm2.5 4.4c0 .8-1.9 1.3-2.4.6-.3-.5.1-.9.9-.9s1.5.2 1.5.3zM212.5 290c-.3.5-.1 1 .4 1 .6 0 1.1-.5 1.1-1 0-.6-.2-1-.4-1-.3 0-.8.4-1.1 1zM288 291.9c0 .6.4 1.3 1 1.6.6.3.7-.1.4-.9-.7-1.8-1.4-2.1-1.4-.7zM212.7 293.7c.3.7.6 1.3.8 1.3.2 0 .5-.6.8-1.3.3-.8-.1-1.4-.8-1.4-.7 0-1.1.6-.8 1.4zM332 294.5c0 .8.5 1.5 1 1.5.6 0 1-.7 1-1.5s-.4-1.5-1-1.5c-.5 0-1 .7-1 1.5zM289.1 295c-1.1 2.3-.5 7 .8 7.5.8.3 1.2.3.8-.1-.4-.4-.2-1.3.4-2.1.8-.9.8-1.3.1-1.3-.6 0-1.3-1-1.5-2.3-.2-1.2-.5-2-.6-1.7zM214.6 298.3c.3 1 .9 1.5 1.2 1.2.3-.3 0-1.1-.7-1.8-1-.9-1.1-.8-.5.6zM393 302.5c1 1.2 1 1.5 0 1.5-.8 0-1.1.3-.7.6.3.3 1 .3 1.6 0 1.2-.8.3-3.6-1.1-3.6-.6 0-.5.6.2 1.5zM219.9 305.7c.6 1.2.8 3 .4 4-.7 1.7-.6 1.7 1.1.1 1.6-1.7 1.6-1.9-.5-4-2.1-2.3-2.1-2.3-1-.1zM291.2 305c.2.8-.2 1.4-.9 1.5-.6 0-1.4.3-1.7.7-.3.5-.3.6 0 .3.4-.2 1.4 0 2.4.5 1.3.7 1.6.5 1.5-1-.1-1.1-.5-2.3-.9-2.7-.4-.5-.6-.1-.4.7zM217.5 307c.3.5.8 1 1.1 1 .2 0 .4-.5.4-1 0-.6-.5-1-1.1-1-.5 0-.7.4-.4 1zM392.5 307.1c-.4.6-.5 1.2-.2 1.5.2.3.7-.2 1-1.1.7-1.7.1-2-.8-.4zM317.3 309.6c-.3.9 0 2 .8 2.5 1 .6.8.9-1.1 1l-2.5.1 2.5.8c2.2.7 1.1 1.5-1.4 1.1-.5-.1-.4.4.3 1.2.9 1.2.9 1.6-.1 2-.8.3-.6.6.6.6 1.3.1 1.6-.4 1.2-1.5-.4-1.1-.2-1.5.7-1.1 1.5.5 1.8-3.6.4-4.9-1.1-1.2-.8-2.6.5-1.8.7.4.8.3.4-.4-1-1.6-1.5-1.5-2.3.4zM289.5 310.2c2.3 1.4 5.2 2.1 3.9.8-.5-.4-2-1.1-3.4-1.4-2.3-.7-2.4-.6-.5.6zM221.6 311.6c-.5 1.4-.4 1.5.9.4 1.7-1.4 1.9-2 .6-2-.5 0-1.2.7-1.5 1.6zM385.1 314c-.1 2.1 1.6 4.6 2.6 3.7.4-.5.3-1.1-.3-1.5-.6-.4-1.4-1.4-1.7-2.2-.5-1.3-.5-1.3-.6 0zM388.2 315.4c.7.8 1.5 1.2 1.7 1.1.5-.6-1-2.5-2-2.5-.5 0-.4.6.3 1.4zM384.4 319.7c.2 1 .6 1.7 1 1.6 1.5-.3 1.6-1.1.2-2.2-1.2-1-1.4-.9-1.2.6zM314.3 322.3c-1.6 1.7-1.6 1.7.3 1.2 1.7-.6 1.7-.4-.3 1.3l-2.2 2 2.2.6c3.3.9 4.4.7 4.5-.7.1-.6.3-2.3.6-3.7.3-2 0-2.6-1.6-2.6-1 0-2.6.9-3.5 1.9zm3.8.1c1.2-.7 1.1.3-.1 2.7-.6 1-1.6 1.9-2.3 1.9-.8 0-.8-.3.2-.9.8-.5 1.1-1.8.7-3.2-.3-1.3-.3-1.8 0-1.1.3.6 1 1 1.5.6zM387 322.5c-.7.8-1.6 1.2-2.1.9-.5-.3-.9 0-.9.5 0 1.7 1.5 1.3 3.5-.9 1-1.1 1.6-2 1.3-2-.3 0-1.1.7-1.8 1.5zM296 324.4c0 .2.8 1 1.8 1.7 1.5 1.3 1.6 1.2.3-.4s-2.1-2.1-2.1-1.3zM227.5 329.8c-.5 1.4-.7 1.4-1.5.2-.6-.9-1-1-1-.3 0 1.6 1.7 2.6 2.5 1.3.3-.5 1.1-1 1.7-1 .6 0 .2 1-1 2.3-1.2 1.3-1.9 2.6-1.6 3 1.1 1 4.6-1.3 4.1-2.8-.3-.7 0-1.8.6-2.4.6-.6.9-1.1.7-1.2-.3 0-1.3-.2-2.2-.4-.9-.2-1.9.4-2.3 1.3zm2.5 3.1c0 .5-.7 1.2-1.6 1.5-1.4.5-1.5.4-.4-.9 1.4-1.7 2-1.9 2-.6zM289.8 331.7c.7.3 1.6.2 1.9-.1.4-.3-.2-.6-1.3-.5-1.1 0-1.4.3-.6.6zM296 332c0 .5.5 1 1.1 1 .5 0 .7-.5.4-1-.3-.6-.8-1-1.1-1-.2 0-.4.4-.4 1zM296.7 334.7c-.2.4-.2 1.7 0 2.8.2 1.1.5 2.6.5 3.2.2 1.6 1.5 1.7 2.4.1.8-1.3 1.3-6 .5-5.3-.2.3-1 0-1.7-.6-.7-.5-1.4-.6-1.7-.2zm2.3 3.8c0 .8-.2 1.5-.4 1.5s-.6-.7-1-1.5c-.3-.8-.1-1.5.4-1.5.6 0 1 .7 1 1.5zM310 334.9c1 .7 1.1 1.1.3 1.1-.7 0-1.3.8-1.2 1.7 0 1.1.3 1.3.6.5.2-.6.8-1 1.3-.7.5.3.7-.3.6-1.2-.2-.9-.9-1.9-1.7-2.1-1.1-.3-1.1-.1.1.7zM231 336.1c0 .5-.4.8-.9.4-.5-.3-1.2-.1-1.5.4-.4.5.2.8 1.1.7 1.5-.3 3.3-2.6 1.9-2.6-.3 0-.6.5-.6 1.1zM377 337.3c1.7 1.4 2 3.9.5 4.9-.6.5-.3.8.7.8.9 0 2-.5 2.3-1 .3-.6.1-1-.4-1-.6 0-1-1-.8-2.1.1-1.5-.4-2.3-1.8-2.5-1.7-.2-1.8-.1-.5.9zM381.3 338.1c-.2 2.3.3 2.5 1 .4.4-.8.3-1.6-.1-1.9-.4-.3-.9.4-.9 1.5zM301.5 339.3c.1 1.2-.2 2.5-.7 2.8-.5.3-.2.9.7 1.2.9.4 1.3.3 1-.3-.3-.6-.2-1 .3-1 .6 0 .8-.9.5-2-.8-2.9-2-3.3-1.8-.7zM229 342.1c0 .4.6.9 1.3 1.2.8.3 1.4 0 1.4-.7s-.6-1.3-1.4-1.3c-.7 0-1.3.4-1.3.8zM306.6 343.2c.3.4.9.8 1.5.8.5 0 .9-.4.9-.8 0-.5-.7-.9-1.5-.9s-1.2.4-.9.9zM378.7 345.1c.7.7 1.5 1 1.8.7.3-.3-.2-.9-1.2-1.2-1.4-.6-1.5-.5-.6.5zM377.2 346.5c.4.4.3 1.6-.3 2.6-.5 1.1-.7 1.9-.5 1.9.3 0 1-.9 1.6-1.9.7-1.5.7-2.2-.2-2.7-.7-.4-1-.4-.6.1zM370.8 350.7c.7.3 1.6.2 1.9-.1.4-.3-.2-.6-1.3-.5-1.1 0-1.4.3-.6.6zM233.3 352.5c0 .8.4 1.2.9.9.5-.3.6-1 .3-1.5-.9-1.3-1.2-1.1-1.2.6zM238 352.9c0 .6.4 1.3 1 1.6.6.3.7-.1.4-.9-.7-1.8-1.4-2.1-1.4-.7zM374.8 352.7c.7.3 1.6.2 1.9-.1.4-.3-.2-.6-1.3-.5-1.1 0-1.4.3-.6.6zM234.6 354.9c-1.6 1.7-1.5 1.8.9 1.6 1.4-.2 2.3.1 1.9.6-.3.5-.9.7-1.4.4-.5-.3-1.2 0-1.6.7-.4.7-.4 1 .1.6.4-.4 1.4-.3 2.2.3.7.6 1.3.8 1.3.3s.5-.2 1 .6c.8 1.2 1 1.1.7-.5-.4-2.9-1.7-4.6-2.9-3.9-.7.5-.9.1-.5-.9.8-2.2.4-2.1-1.7.2zM369.8 355.7c.7.3 1.6.2 1.9-.1.4-.3-.2-.6-1.3-.5-1.1 0-1.4.3-.6.6zM374 357c0 .5.9.8 2 .7 2.1-.1 1.8-1-.5-1.3-.8-.1-1.5.2-1.5.6zM369.2 362c-.3.8-.6 1.7-.8 2-.1.3.7.7 1.8.7 1.6.2 1.8-.1.9-1-1.9-1.9-1.2-3.1.8-1.3 1.4 1.3 2.1 1.4 2.7.5.5-.8.3-1-.6-.4-.9.6-1.2.4-.8-.6.4-1-.1-1.5-1.4-1.5-1.1 0-2.3.7-2.6 1.6zM237.4 361.9c.4.5.1 1.1-.6 1.3-.9.3-.9.6 0 1.2.7.4 1.2.2 1.2-.4 0-.6.5-.8 1.3-.4.8.5.8.2-.2-.9-1.4-1.8-2.6-2.3-1.7-.8zM368.5 371.5c0 2.9.2 5.1.5 4.8.3-.2.5-1 .5-1.6.1-.7.5-1.1 1-1 1.7.3 1.4-4.5-.4-6.1-1.5-1.3-1.6-1-1.6 3.9zm2.5-1.6c0 .6-.4 1.2-.8 1.5-.5.3-.9-.1-.9-.9s.4-1.5.9-1.5c.4 0 .8.4.8.9zM241.8 376.8c1 .3 1 .7 0 2-1.1 1.3-1.1 1.4.1.7 1.1-.6 1.3-.4.8.8-.3 1-.2 1.7.4 1.7.6 0 .9-.8.8-1.8-.3-3 .1-3.5 1.6-2.2.9.7 1.8 1 2.2.6.3-.3 0-.6-.8-.6-1.1 0-1.1-.2-.1-.8.8-.6-.2-.9-2.5-.9-2.1 0-3.2.2-2.5.5z"/><path d="M247 379.9c-2 .6-2.2.8-.8 1.3.9.4 2.2.1 2.8-.8.7-.8 1.1-1.4.9-1.3-.2.1-1.5.4-2.9.8zM245.3 384.3c0 .8.6 1.4 1.2 1.4s1.2-.6 1.2-1.4c0-.7-.6-1.3-1.2-1.3s-1.2.6-1.2 1.3zM362.9 385.9c2.6 2.2 2.6 3.1-.1 4.9-1.8 1.3-1.6 3.8.3 2.7.5-.4.9-.1.9.6s.3.9.6.6c.4-.4.2-1.3-.5-2.1-.9-1.1-.8-1.5.4-2 .8-.3 1.4-.9 1.3-1.3-.1-.4.3-1.7.9-2.9 1-1.6.9-2.1-.2-2.1-.8 0-1.1.7-.7 1.6.4 1.4.2 1.3-1.5-.2-1.1-.9-2.3-1.7-2.8-1.7-.4 0 .2.9 1.4 1.9z"/><path d="M359.9 387.7c-1.2 1.4-1.2 1.6 0 .8 1.1-.6 1.3-.4.8.9-.4.9-.3 1.5.2 1.1.6-.3.9-1.4.8-2.5-.2-2.4-.1-2.4-1.8-.3zM247.5 389c-.3.6.1.7.9.4 1.8-.7 2.1-1.4.7-1.4-.6 0-1.3.4-1.6 1zM251.8 389.7c.7.3 1.6.2 1.9-.1.4-.3-.2-.6-1.3-.5-1.1 0-1.4.3-.6.6zM360.1 394.4c-.1.5.7 1.8 1.7 2.9 1.6 2 1.6 2-.3 1.3-1.5-.5-1.7-.4-.8.5 1.5 1.5 3.8.2 2.4-1.5-.6-.7-.7-1.7-.3-2.1.4-.5.2-.5-.5-.2-.6.4-1.4.1-1.6-.5-.3-.7-.6-.9-.6-.4zM354.8 398.7c.7.3 1.6.2 1.9-.1.4-.3-.2-.6-1.3-.5-1.1 0-1.4.3-.6.6zM254 402.3c0 .9-.4 1.7-1 1.7-.5 0-1 .4-1 1 0 .5.4 1 .9 1 1.2 0 2.5-3.9 1.7-4.7-.3-.4-.6.1-.6 1zM250.5 403.1c-1.1 1.6-.1 1.9 1.3.3.7-.8.8-1.4.3-1.4s-1.3.5-1.6 1.1zM360 404.1c0 .5.5.7 1 .4.6-.3 1-.8 1-1.1 0-.2-.4-.4-1-.4-.5 0-1 .5-1 1.1zM354 409c0 .5.7.7 1.5.4.8-.4 1.5-.1 1.5.6 0 .6.5.8 1.1.4.8-.4.7-.9-.2-1.5-1.9-1.2-3.9-1.1-3.9.1zM253.6 412.2c.3.4.9.8 1.5.8.5 0 .9-.4.9-.8 0-.5-.7-.9-1.5-.9s-1.2.4-.9.9zM355.1 412.6c0 1.1.3 1.4.6.6.3-.7.2-1.6-.1-1.9-.3-.4-.6.2-.5 1.3zM252.6 414.4c.3.9 1.3 1.6 2.2 1.6.8 0 1.3-.1 1.1-.3-.2-.1-1.2-.9-2.2-1.6-1.5-1.2-1.7-1.2-1.1.3zM352.5 414c-.3.5-.1 1 .4 1 .6 0 1.1-.5 1.1-1 0-.6-.2-1-.4-1-.3 0-.8.4-1.1 1zM352.2 420.1c.1 1.4.8 2.6 1.5 2.6 1.7 0 1.6-.7-.2-3.1-1.5-1.9-1.5-1.9-1.3.5z"/></svg>